<svg xmlns="http://www.w3.org/2000/svg" viewBox="38 14 14 9" width="168" height="108" fill="none"><defs>
    <linearGradient id="paint0_linear_20021_13433" x1="44.59" x2="45.57" y1="18.17" y2="20.75" gradientUnits="userSpaceOnUse">
      <stop stop-color="#C5A1E3" offset="0" />
      <stop stop-color="#EDB7D6" offset=".5156" />
      <stop stop-color="#A27AD5" offset="1" />
    </linearGradient>
    <linearGradient id="paint1_linear_20021_13433" x1="48.24" x2="47.05" y1="15.56" y2="20.64" gradientUnits="userSpaceOnUse">
      <stop stop-color="#C5A1E3" offset="0" />
      <stop stop-color="#A87AD4" offset=".4271" />
      <stop stop-color="#CD9ED6" offset=".724" />
      <stop stop-color="#9269B7" offset="1" />
    </linearGradient>
    <linearGradient id="paint2_linear_20021_13433" x1="49.75" x2="49.43" y1="15.32" y2="17.12" gradientUnits="userSpaceOnUse">
      <stop stop-color="#D6B1E0" offset="0" />
      <stop stop-color="#B185D3" offset="1" />
    </linearGradient>
    <linearGradient id="paint3_linear_20021_13433" x1="73.41" x2="73.25" y1="18.08" y2="20.98" gradientUnits="userSpaceOnUse">
      <stop stop-color="#D6B1E0" offset="0" />
      <stop stop-color="#B989D6" offset=".5365" />
      <stop stop-color="#986FB5" offset="1" />
    </linearGradient>
    <linearGradient id="paint4_linear_20021_13433" x1="71.64" x2="73.16" y1="19.64" y2="21.03" gradientUnits="userSpaceOnUse">
      <stop stop-color="#D6B1E0" offset="0" />
      <stop stop-color="#B989D6" offset=".6354" />
      <stop stop-color="#986FB5" offset="1" />
    </linearGradient>
  </defs>
  <path d="m50.51 15.35s-1.75-0.22-2.39 0.39c-0.97 0.95-1.71 3.17-2.03 3.72-0.6-0.44-2.13-1.32-2.96-1.29-0.78 0.03-1.29 0.99-1.99 1.8-0.64 0.77-1.4 0.87-1.4 0.93 0 0.08 1.15 0.46 1.69 0.39 0.94-0.12 1.4-1.56 1.59-1.76 0.49 0.4 2.03 1.37 2.53 1.32s1.67-0.56 2.12-1.21c0.54-0.82 0.78-2.3 1.05-2.52 0.49-0.07 1.51 0.01 1.51 0.01 0.14-0.53 0.28-1.78 0.28-1.78z" fill="url(#paint0_linear_20021_13433)" />
  <path d="m48.12 15.74c-0.97 0.95-1.71 3.17-2.03 3.72-0.2 0.67-0.67 1.28-0.67 1.36 0.63-0.02 1.76-0.53 2.2-1.18 0.53-0.82 0.74-2.32 1.07-2.52l-0.57-1.38z" fill="url(#paint1_linear_20021_13433)" />
  <path d="m47.51 17.01c0.9-0.19 2.72 0.12 2.72 0.12 0.14-0.53 0.28-1.78 0.28-1.78-1.02-0.04-1.83 0.13-2.27 0.41-0.33 0.33-0.73 1.25-0.73 1.25z" fill="url(#paint2_linear_20021_13433)" opacity=".5" />
  <path d="m41.98 19.23c0.64-0.16 1.12 0.17 1.25 0.24 0.09-0.34 0.32-0.97 0.53-1.22-0.25-0.05-0.55-0.11-0.77-0.05-0.56 0.19-1.01 1.03-1.01 1.03z" fill="#C5A1E3" opacity=".5" />
  <path d="m50.51 15.35s-1.75-0.22-2.39 0.39c-0.97 0.95-1.71 3.17-2.03 3.72-0.6-0.44-2.13-1.32-2.96-1.29-0.78 0.03-1.29 0.99-1.99 1.8-0.64 0.77-1.4 0.87-1.4 0.93 0 0.08 1.15 0.46 1.69 0.39 0.94-0.12 1.4-1.56 1.59-1.76 0.49 0.4 2.03 1.37 2.53 1.32s1.67-0.56 2.12-1.21c0.54-0.82 0.78-2.3 1.05-2.52 0.49-0.07 1.51 0.01 1.51 0.01 0.14-0.53 0.28-1.78 0.28-1.78z" stroke="#000" stroke-opacity=".1" stroke-width=".05859" />
  </svg>